<?xml version="1.0" encoding="utf-8"?>
<!-- Generator: Adobe Illustrator 27.7.0, SVG Export Plug-In . SVG Version: 6.00 Build 0)  -->
<svg version="1.1" id="Camada_1" xmlns="http://www.w3.org/2000/svg" xmlns:xlink="http://www.w3.org/1999/xlink" x="0px" y="0px"
	 viewBox="0 0 1080 1080" style="enable-background:new 0 0 1080 1080;" xml:space="preserve">
<style type="text/css">
	.st0{fill:#FFFFFF;}
</style>
<g>
	<path class="st0" d="M986.75,593.63c-8.95-6.73-19.05-10.98-29.73-14.06c-8.86-2.55-17.77-4.97-25.95-9.41
		c-9.87-5.35-13.71-13.83-10-23.47c3.04-7.91,10.17-10.2,17.73-11.55c5.34-0.8,10.68-0.73,16.03-0.04
		c9.58,0.41,18.46,3.57,27.31,6.86c6.5,2.41,10.68,0.89,12.8-5.58c4.99-15.18,1.79-24.75-13.83-28.49
		c-15.81-3.78-31.76-6.12-48.2-3.68c-25.99,3.85-47.98,17.41-51.09,46.45c-1.94,18.18,3.24,33.64,17.81,45.18
		c10.37,8.21,22.66,12.64,35.29,16.27c7.89,2.27,15.85,4.59,22.93,8.92c6.65,4.07,10.41,10.14,9.94,17.98
		c-0.47,7.82-4.78,13.61-11.94,16.73c-9.47,4.12-19.41,4.13-29.46,2.39c-11.13-1.92-21.79-5.25-32.07-9.9
		c-3.35-1.52-6.57-1.36-9.23,1.83c-9.06,10.88-4.25,28.36,9.03,32.57c17.49,5.55,35.33,8.42,53.7,6.31
		c13.28-1.52,25.8-5.07,36.98-12.94C1011.39,657.29,1014.22,614.26,986.75,593.63z"/>
	<path class="st0" d="M210.32,410.87c-1.93-16.27-5.19-32.29-8.56-48.31c-0.86-4.09-2.89-6.76-7.12-7.95
		c-12.06-3.41-20.98-0.65-27.73,9.8c-10.89,16.86-19.95,34.64-25.54,54.03c-0.59,2.03-0.71,4.38-3.13,5.72
		c-0.46-0.67-1.08-1.25-1.29-1.95c-5.72-19.11-15.58-36.33-24.86-53.8c-1.97-3.7-4.45-7.1-7.49-10.1
		c-6.77-6.66-14.91-4.75-22.73-3.44c-6.6,1.11-6.98,7.26-7.79,12.2c-2.33,14.13-4.91,28.21-6.83,42.43
		c-3.12,23.02-4.43,46.1-5.64,69.24c-0.28,5.29,2.21,8.21,6.77,9c7.32,1.28,14.78,1.58,22.02-0.83c2.39-0.8,4.19-2,4.11-5.09
		c-0.55-19.78,1.58-39.47,2.53-59.19c0.39-7.99,1.81-15.93,2.77-23.93c2.96,0.42,3.52,2.32,4.38,4.16
		c7.92,17.11,13.31,35.06,18.2,53.19c4.28,15.88,5.29,16.6,21.87,15.46c0.4-0.03,0.81,0,1.2-0.07c3.83-0.61,6.39-1.96,7.17-6.56
		c3.58-20.98,10.43-40.98,19.52-60.22c1.18-2.5,1.92-5.45,4.8-6.97c2.4,9.43,2.15,18.66,2.89,27.74
		c1.45,17.69,3.71,35.41,2.44,53.23c-0.4,5.65,2.51,8.49,7.27,9.23c6.72,1.05,13.57,1.22,20.31-0.6c3.82-1.04,5.46-3.02,5.38-7.26
		c-0.25-12.35-1.4-24.63-2.24-36.93C212.23,432.34,211.59,421.59,210.32,410.87z"/>
	<path class="st0" d="M398.61,479.09c-0.32-24.2-0.16-48.41-0.09-72.62c0-1.44-0.98-3.51,0.92-4.27c1.76-0.71,2.93,1.01,3.91,2.19
		c5.14,6.14,10.57,12.08,15.19,18.59c12.62,17.74,22.04,37.08,27.93,58.07c1,3.57,2.48,7.06,6.83,7.31
		c4.6,0.27,9.28,0.36,13.85-0.15c4.18-0.46,7.49-2.13,7.47-7.54c-0.16-39.01-0.18-78.02-0.07-117.03c0.01-4.92-2.17-7.18-6.55-8.58
		c-4.95-1.58-9.95-1.16-14.94-1.07c-8.96,0.16-11.16,2.56-11.16,11.46c0,15.14,0,30.28,0,45.42c-0.46,0.16-0.91,0.32-1.37,0.48
		c-0.65-0.68-1.47-1.27-1.93-2.06c-10.42-17.9-25.37-31.91-39.98-46.2c-5.92-5.79-12.76-9.48-21.46-9.22
		c-9.3,0.27-11.31,2.11-11.31,11.26c-0.03,37.81,0.04,75.62-0.27,113.42c-0.05,5.93,2.63,8.84,7.66,9.49
		c6.13,0.79,12.39,0.94,18.58-0.34C396.6,486.73,398.68,484.45,398.61,479.09z"/>
	<path class="st0" d="M193.56,507.67c-29.15-0.02-58.29-0.01-87.44-0.01c-13.07,0-26.13,0.09-39.19-0.05
		c-4.9-0.05-7.5,2.03-8.14,6.82c-0.72,5.38-0.87,10.8-0.31,16.16c0.56,5.41,3.28,8.51,9.52,8.35c12.85-0.33,25.74,0.23,38.58-0.21
		c5.96-0.2,7.32,1.81,7.29,7.46c-0.22,43.22-0.04,86.43-0.23,129.65c-0.02,4.93,1.71,7.32,6.29,8.48
		c7.55,1.91,15.21,1.37,22.75,0.68c5.11-0.47,7.55-3.91,7.52-9.67c-0.28-43.62-0.26-87.23-0.33-130.85c0-1.98-0.3-4.04,1.28-5.67
		c14.25,0.04,28.5,0.11,42.76,0.08c2.33,0,4.85,0.71,6.94-1.07c0,0,0,0,0,0c3.29-0.7,4.61-2.84,4.58-6.07
		c-0.05-4.4,0.21-8.82-0.06-13.2C204.84,510.37,201.83,507.67,193.56,507.67z"/>
	<path class="st0" d="M827.6,520.88c-14.27-9.87-30.54-13.69-47.84-13.35c-8.49-0.82-16.98-0.59-25.48-0.12
		c-5.86-0.12-9.65,2.13-9.81,8.52c-0.44,6.06-0.81,12.13,0.2,18.18c0.96,3.42,3.8,2.27,6.01,2.33c11.4,0.32,22.83-0.58,34.21,1.2
		c15.29,2.39,26.54,9.5,31.45,24.88c2.44,7.66,4.03,15.43,4.34,23.44c0.35,9.33-0.08,18.62-0.91,27.95
		c-1.94,21.76-12.92,40.53-39.96,41.62c-2.12,0.87-4.33,0.37-6.5,0.45c-8.35,0.29-16.72-0.51-25.06,0.43
		c-1.73,0.09-3.35,0.36-3.78,2.46c-0.56,6.08-0.57,12.15,0.01,18.23c0.43,5.54,3.53,8.37,9.03,8.27c12.83-0.23,25.66,0.7,38.48-1.17
		c14.93-2.19,29.06-6.1,40.66-16.29c17.13-15.05,22.87-34.88,24.5-56.7c0.77-10.32,0.55-20.53-0.08-30.8
		C855.62,556.45,848.31,535.21,827.6,520.88z"/>
	<path class="st0" d="M708.12,510.29c-9.03-3.78-18.29-3.86-27.53-0.61c-1.77,0.62-3.06,1.87-3.56,3.77
		c-0.86,2.13-0.43,4.35-0.43,6.53c-0.04,21.01-0.02,42.01-0.02,63.03c-0.01,2.92,0.06,5.83-0.03,8.74
		c-0.05,1.82-0.16,3.81-2.93,2.29c-6.59-9.55-13.17-19.11-19.76-28.66c-14.25-19.21-29.88-37.09-49.22-51.5
		c-8.16-6.08-17-7.77-26.7-5.11c-3.56,0.98-5.8,3.06-5.78,7.29c0.15,39.22,0.18,78.43,0.24,117.65
		c-0.07,14.74-0.04,29.48-0.27,44.21c-0.06,3.58,1.92,5.12,4.69,5.99c8.21,2.57,16.68,1.96,24.95,0.84
		c4.38-0.59,7.36-3.78,6.79-9.01c-0.34-3.16-0.26-6.36-0.37-9.55c0.06-14.4,0.14-28.81,0.19-43.21c0.07-20.8,0.12-41.61,0.18-62.41
		c0,0,0,0,0,0c3.17-0.03,4.95,2.28,6.77,4.26c6.15,6.66,12.17,13.44,18.24,20.17c0,0,0,0,0,0c0.18,0.56,0.22,1.22,0.56,1.66
		c21.25,27.7,37.89,57.73,46.6,91.73c1.22,4.77,4.66,6.49,8.72,6.88c4.77,0.46,9.65,0.31,14.43-0.08c6.42-0.53,8.25-2.78,8.26-9.2
		c0.02-21.58,0.01-43.16,0.01-64.74c0-30.57-0.01-61.14,0.01-91.72C712.17,515.81,712.09,511.95,708.12,510.29z"/>
	<path class="st0" d="M896.83,422.06c0.21-4.6-1.59-8.41-3.7-12.05c-9.42-16.23-21.5-30.35-35.12-43.19
		c-4.66-4.39-7.44-4.43-12.17-0.89c-5.78,4.33-6.45,6.61-3.58,12.65c0.77,1.62,1.71,3.16,2.63,4.71
		c6.55,11.04,12.26,22.44,16.02,34.78c1.14,3.76,0.92,6.99-1.36,10.2c-3.82,5.38-7.46,10.89-11.27,16.28
		c-6.28,8.86-14.63,15.9-21.66,24.1c-4.7,5.5-4.46,7.39,0.77,13.37c3.47,3.96,6.48,4.4,11.6,0.86c19.4-13.4,36.75-29.11,52.2-46.87
		C894.66,432.01,897.02,427.38,896.83,422.06z"/>
	<path class="st0" d="M772.06,482.59c19.3-13.51,36.63-29.21,52.08-46.95c3.37-3.87,5.44-8.37,5.28-13.04
		c0.07-4.02-0.01-5.34-1.75-8.7c-9.6-18.52-23.05-34.05-38.22-48.2c-3.21-3-6.72-2.94-10.35-0.3c-6.54,4.75-7.35,7.31-3.32,14.61
		c5.42,9.8,10.18,19.89,15.03,29.97c5.05,10.5,2.21,18.36-4.12,26.88c-8.39,11.28-17.93,21.48-27.38,31.82
		c-4.9,5.36-4.42,7.93,0.98,13.87C764.23,486.88,768.2,485.29,772.06,482.59z"/>
	<path class="st0" d="M241.7,488.08c7.15,0.62,14.42,1.25,21.51-0.93c3.45-1.06,5.43-2.86,5.06-6.88c-0.27-2.95,0.3-5.97,0.4-8.96
		c0.16-5.13,2.32-7.31,7.88-7.01c8.81,0.48,17.67,0.13,26.5,0.13c13.37,0,13.37,0,13.39,13.57c0.01,7.72,2.39,10.15,10.32,10.42
		c2.21,0.08,4.42,0.01,6.63,0.01c0-0.01,0-0.02,0-0.04c2.61,0,5.24,0.17,7.83-0.03c6.01-0.48,8.2-2.89,7.92-8.74
		c-0.24-4.98-0.6-9.96-1.11-14.92c-3.63-35.47-14.54-68.58-32.62-99.35c-3.13-5.33-7.24-10.11-13.72-10.72
		c-19.09-1.82-26.28-2.23-35.11,13.97c-1.05,1.93-2.19,3.81-3.23,5.75c-12.13,22.8-19.24,47.27-24.08,72.46
		c-2.11,10.97-3.22,22.08-3.85,33.24C235.17,484.69,237.46,487.71,241.7,488.08z M288.46,389.81c0.82-1.74,1.59-4.36,3.61-4.4
		c2.54-0.05,2.96,2.9,3.89,4.78c6.77,13.7,10.8,28.33,14.63,43.02c1.96,3.63,1.91,6.12-3.24,6.09c-10.04-0.06-20.08-0.01-30.12-0.04
		c-1.55,0-3.32,0.32-4.02-1.73C275.49,420.74,281.27,405.04,288.46,389.81z"/>
	<path class="st0" d="M319,609.68c-1.43-0.81-2.83-1.55-2.78-3.48c0.28-0.26,0.54-0.72,0.85-0.76c24.71-3.09,42.65-22.05,41.82-48.8
		c-0.68-22.09-13.85-39.4-36.17-44.27c0,0,0,0,0,0c-5.25-3.61-11.56-2.66-17.29-3.39c-22.35-2.82-44.86-0.94-67.31-1.21
		c-4.81-0.06-8.51,3.89-8.51,8.3c0,30.41,0.1,60.81,0.17,91.22c-0.07,23.37-0.05,46.74-0.29,70.1c-0.04,4.14,2.18,5.61,5.41,6.73
		c6.65,2.31,13.53,1.12,20.31,1.19c7.84,0.08,10.72-3.13,10.68-10.9c-0.09-17.18-0.15-34.36-0.21-51.53
		c-0.01-1.94-0.56-4.5,2.36-4.63c8.42-0.38,16.97-1.03,24.11,4.88c2.46,2.03,4.84,4.17,7.26,6.25
		c12.19,13.21,20.07,28.67,24.7,45.95c2.02,7.54,5.5,9.84,13.54,10.03c4.61,0.11,9.23,0.08,13.84,0.01
		c10.21-0.15,14.14-4.64,11.63-14.24C356.31,645.1,343.21,623.4,319,609.68z M293.56,589.15c-7.54,0.85-15.26,0.04-22.89,0.24
		c-3.65,0.09-5.19-1.42-5.19-4.87c0.06-13.55,0.4-27.11,0.03-40.66c-0.14-5.09,1.45-6.96,6.3-6.5c0,0,0,0,0,0
		c0.07-0.01,0.15-0.02,0.22-0.04c0,0.01,0,0.03,0,0.04c7.95,0.1,15.91,0.23,23.87,0.3c21.51,0.2,33.38,20.05,22.92,38.72
		C313.38,586.08,303.35,588.04,293.56,589.15z"/>
	<path class="st0" d="M499.28,512.63c-15.91-5.21-32.15-6.35-48.67-3.56c-24.39,4.12-43.15,16.16-53.14,39.24
		c-11.49,26.53-12.6,54.19-6.51,82.17c2.61,11.97,7.29,23.2,15.8,32.45c3.15,4.74,7.46,8.3,12.01,11.59
		c11.84,8.58,25.36,12.16,39.68,14.27c21.85,3.21,42.75-0.23,63.1-7.67c11.54-4.22,14.17-8.49,11.82-20.12
		c-2.69-13.31-7.92-15.98-17.98-10.8c-8.56,4.41-17.83,7.45-27.47,8.26c-20.81,1.77-41.38,2.31-53.24-19.91
		c-1.9-5.62-4.08-11.14-5.23-17c-1.33-6.77-0.63-7.55,5.94-6.51c2.53,0.4,5.13,0.37,7.7,0.54c19,3.2,37.67,1.13,55.93-4.25
		c21.02-6.2,36.09-18.49,38.51-41.72c1.64-15.75-2.31-30.01-13.42-41.86C517.29,520.35,508.72,515.73,499.28,512.63z M479.05,587.18
		c-6.69,1.57-13.41,2.31-20.25,2.34c-7.21-0.07-14.41-0.17-21.62-0.19c-9.35-0.02-10.03-1.2-8.96-10.35
		c1.1-9.42,3.08-18.38,8.05-26.62c11.48-19.06,45.51-22.02,58.27-4.94c1.4,1.88,2.5,3.99,3.73,6
		C501.78,572.43,495.47,583.34,479.05,587.18z"/>
	<path class="st0" d="M705,381.54c-1.86-5.75-5.76-10.49-8.16-15.92c-7.11-16.07-39.92-15.77-47.7,0.12
		c-8.27,16.9-16.4,33.66-21.58,51.78c-3.83,13.38-7.66,26.73-8.41,40.73c-1.43,7.62-2.62,15.28-2.57,23.05
		c0.03,4.3,2.75,6.76,6.78,7c5.8,0.34,11.66,0.4,17.45-0.07c6.85-0.55,8.35-2.61,8.66-9.48c0.13-2.98,0.88-5.95,0.91-8.93
		c0.04-4.1,1.77-5.57,5.9-5.46c8.83,0.24,17.67,0.07,26.5,0.07c14.81,0,15.1,0.01,14.75,14.58c-0.14,5.77,1.92,8.33,8.5,9.21
		c5.52,0.74,11.24,0.45,16.84,0.1c5.01-0.32,8.01-2.73,7.64-8.52c-1.18-18.77-3.8-37.27-9.4-55.26
		C716.54,409.91,712.75,394.98,705,381.54z M689.24,439.27c-10.58,0.11-21.17,0.01-31.75-0.08c-0.68-0.01-1.36-0.68-2.03-1.05
		c-1.76-1.49-0.53-3.27-0.47-4.93c2.82-15.38,8.26-29.88,15.03-43.91c0.79-1.64,1.4-4.35,3.5-4.26c2.13,0.09,2.45,2.88,3.39,4.55
		c1.82,3.25,2.35,7.13,4.85,10.06c3.75,11.07,7.63,22.09,10.14,33.53c0,0,0,0,0,0C693.39,436.25,694.19,439.21,689.24,439.27z"/>
	<path class="st0" d="M602.63,448.21c1.18-5.45,1.64-11.04,2.51-16.56c2.55-16.1-0.41-31.47-6.22-46.46
		c-0.37-1.32-0.53-2.75-1.15-3.94c-7.14-13.77-18.97-21.39-33.73-24.73c-20.21-4.58-40.78-2.15-61.19-2.38
		c-4.89-0.05-6.67,3.85-6.66,8.37c0.04,37.98,0.09,75.95,0.14,113.93c-0.59,8.68,1.13,12.09,6.82,11.94
		c19.41-0.51,38.83,1.32,58.24-2.07C582.7,482.58,598.07,469.23,602.63,448.21z M572.38,436.41c-2.33,17.11-10.45,24.92-27.85,25.83
		c0,0,0,0,0,0h0c-4.85-0.04-9.69-0.09-14.54-0.13h0c0,0,0,0,0,0c-1.82-1.24-0.89-3.27-1.42-4.89c0.07-23.36,0.13-46.71,0.2-70.07
		c0.02-6.8,0.03-6.88,6.96-6.8c4.8,0.06,9.65,0,14.39,0.65c11.13,1.52,17.97,8.04,20.82,18.81c0.41,1.54,0.95,3.05,1.43,4.57
		C573.53,415.06,573.84,425.68,572.38,436.41z"/>
</g>
</svg>
